<svg width="147" height="32" viewBox="0 0 147 32" fill="none" xmlns="http://www.w3.org/2000/svg">
<path d="M19.21 17.2853C19.0275 17.1789 18.6927 17.0978 18.0609 16.2165C17.4934 15.3633 17.3386 14.7317 17.3288 14.4492C16.4116 15.6211 15.9975 15.5293 15.2121 15.5281C6.40219 15.522 6.58231 15.5342 6.58231 15.5342V18.721H12.6523C12.7246 18.721 12.793 18.7538 12.8383 18.8102L18.0342 25.2789H22.2613L17.1159 18.949C17.0006 18.8071 17.0808 18.5896 17.2544 18.532C17.722 18.3767 18.2587 18.0645 18.9749 17.4728L19.21 17.2853Z" fill="black"/>
<path d="M16.4062 6.65015C16.4411 6.64703 18.7637 6.44781 20.2012 8.72828C21.2914 10.4593 20.9143 11.4671 20.9756 12.3845C21.0528 13.5316 20.9619 14.2586 23.4072 14.2586C26.1308 14.4624 27.49 14.6622 28.5039 15.2195C30.38 16.2507 31.4775 17.7071 31.4775 19.7937C31.4775 22.7878 29.054 25.0154 26.4346 25.2615C23.815 25.5074 22.9395 25.2615 22.9395 25.2615L20.3779 22.0671C20.4053 22.0751 23.5716 22.9867 26.0664 22.1453C27.0731 21.8057 28.1487 21.1871 28.0801 19.9656C27.9501 17.6568 25.5976 17.6292 21.8574 17.5388C20.9303 17.5168 20.0663 17.3676 19.127 16.5125C18.4635 15.9089 17.4248 14.5504 17.6982 11.99C17.8957 10.1307 16.6693 9.90116 15.584 9.86207H8.58984V6.65015H16.4062Z" fill="black"/>
<path d="M24.7119 6.64458C26.024 6.63975 27.9314 7.02962 29.209 8.23833C31.0473 9.97758 32.3145 11.9209 32.3145 11.9209L30.3115 12.3887C30.3009 12.3792 27.6526 10.0221 25.1992 9.77153C22.7412 9.52057 21.956 10.163 21.4707 10.4229C21.4289 9.75213 21.3081 9.4494 21.0625 8.89946C20.8229 8.36141 20.4321 7.92591 20.1016 7.61723C21.4469 6.83517 23.4559 6.64925 24.7119 6.64458Z" fill="black"/>
<path d="M46.7217 25.3622H43.5055V11.5884C43.5055 11.3733 43.2482 11.271 43.1052 11.4318C42.5239 12.0854 41.4342 13.3803 40.6906 14.6859C39.4302 16.8989 38.2187 19.9981 38.2187 19.9981H33.9888C31.671 13.2697 28.7719 10.5826 25.9503 9.89188C25.9503 9.89188 22.4001 7.07128 23.4294 6.72261C23.9386 6.55016 29.8994 5.99699 33.6177 11.79C34.6261 13.3611 35.48 15.4378 35.8755 16.467C35.9563 16.6772 36.268 16.679 36.3506 16.4695C36.8855 15.1131 38.2657 11.8952 39.9852 10.0408C41.8336 8.04741 44.1104 7.24757 45.5252 6.92931C46.2457 6.76723 46.8606 7.34294 46.8549 8.08141L46.7217 25.3622Z" fill="black"/>
<path d="M53.4453 22.4758V12.3122H57.6449C57.7437 12.3122 57.8707 12.3169 58.026 12.3263C58.1813 12.331 58.3248 12.3451 58.4565 12.3686C59.0447 12.458 59.5294 12.6533 59.9105 12.9545C60.2963 13.2556 60.581 13.6367 60.7645 14.0979C60.9527 14.5543 61.0468 15.0625 61.0468 15.6224C61.0468 16.1776 60.9527 16.6858 60.7645 17.1469C60.5763 17.6034 60.2893 17.9821 59.9034 18.2833C59.5223 18.5844 59.04 18.7797 58.4565 18.8691C58.3248 18.8879 58.1789 18.902 58.0189 18.9115C57.8637 18.9209 57.739 18.9256 57.6449 18.9256H55.1463V22.4758H53.4453ZM55.1463 17.3375H57.5743C57.6684 17.3375 57.7743 17.3328 57.8919 17.3234C58.0095 17.314 58.1177 17.2952 58.2166 17.2669C58.4989 17.1963 58.72 17.0717 58.88 16.8929C59.0447 16.714 59.16 16.5117 59.2259 16.2859C59.2964 16.06 59.3317 15.8388 59.3317 15.6224C59.3317 15.406 59.2964 15.1848 59.2259 14.9589C59.16 14.7284 59.0447 14.5237 58.88 14.3449C58.72 14.1661 58.4989 14.0414 58.2166 13.9708C58.1177 13.9426 58.0095 13.9261 57.8919 13.9214C57.7743 13.912 57.6684 13.9073 57.5743 13.9073H55.1463V17.3375Z" fill="black"/>
<path d="M63.8019 22.4758L65.1429 19.7372L61.6351 12.3122H63.5549L66.0323 17.9445L68.5873 12.3122H70.4012L65.6158 22.4758H63.8019Z" fill="black"/>
<path d="M75.182 22.6875C74.1657 22.6875 73.2952 22.4664 72.5705 22.0241C71.8459 21.577 71.2883 20.9559 70.8978 20.1607C70.5119 19.3655 70.319 18.4433 70.319 17.394C70.319 16.3447 70.5119 15.4224 70.8978 14.6272C71.2883 13.832 71.8459 13.2133 72.5705 12.7709C73.2952 12.3239 74.1657 12.1004 75.182 12.1004C76.3537 12.1004 77.33 12.3945 78.1111 12.9827C78.8922 13.5662 79.4404 14.3543 79.7556 15.3471L78.0405 15.82C77.8429 15.1566 77.5065 14.639 77.0312 14.2673C76.556 13.8908 75.9396 13.7026 75.182 13.7026C74.4998 13.7026 73.9304 13.8555 73.474 14.1614C73.0223 14.4672 72.6811 14.8978 72.4506 15.453C72.2247 16.0035 72.1094 16.6505 72.1047 17.394C72.1047 18.1374 72.2176 18.7868 72.4435 19.342C72.6741 19.8925 73.0176 20.3207 73.474 20.6266C73.9304 20.9324 74.4998 21.0853 75.182 21.0853C75.9396 21.0853 76.556 20.8971 77.0312 20.5207C77.5065 20.1443 77.8429 19.6267 78.0405 18.9679L79.7556 19.4408C79.4404 20.4336 78.8922 21.2241 78.1111 21.8123C77.33 22.3958 76.3537 22.6875 75.182 22.6875Z" fill="black"/>
<path d="M85.6037 22.6875C84.5873 22.6875 83.7168 22.4664 82.9922 22.0241C82.2676 21.577 81.71 20.9559 81.3194 20.1607C80.9336 19.3655 80.7407 18.4433 80.7407 17.394C80.7407 16.3447 80.9336 15.4224 81.3194 14.6272C81.71 13.832 82.2676 13.2133 82.9922 12.7709C83.7168 12.3239 84.5873 12.1004 85.6037 12.1004C86.7753 12.1004 87.7517 12.3945 88.5328 12.9827C89.3139 13.5662 89.862 14.3543 90.1773 15.3471L88.4622 15.82C88.2646 15.1566 87.9281 14.639 87.4529 14.2673C86.9777 13.8908 86.3613 13.7026 85.6037 13.7026C84.9214 13.7026 84.3521 13.8555 83.8956 14.1614C83.4439 14.4672 83.1028 14.8978 82.8722 15.453C82.6464 16.0035 82.5311 16.6505 82.5264 17.394C82.5264 18.1374 82.6393 18.7868 82.8652 19.342C83.0957 19.8925 83.4392 20.3207 83.8956 20.6266C84.3521 20.9324 84.9214 21.0853 85.6037 21.0853C86.3613 21.0853 86.9777 20.8971 87.4529 20.5207C87.9281 20.1443 88.2646 19.6267 88.4622 18.9679L90.1773 19.4408C89.862 20.4336 89.3139 21.2241 88.5328 21.8123C87.7517 22.3958 86.7753 22.6875 85.6037 22.6875Z" fill="black"/>
<path d="M90.7455 22.4758L93.9498 12.3122H96.4413L99.6457 22.4758H97.8953L94.9874 13.3568H95.3685L92.4959 22.4758H90.7455ZM92.5312 20.2737V18.6856H97.8671V20.2737H92.5312Z" fill="black"/>
<path d="M100.922 22.4758V12.3122H102.644V19.4761L107.359 12.3122H109.081V22.4758H107.359V15.3118L102.644 22.4758H100.922ZM104.994 11.4511C104.599 11.4511 104.239 11.3546 103.914 11.1617C103.594 10.9688 103.338 10.7123 103.145 10.3924C102.952 10.0677 102.856 9.70775 102.856 9.3125H104.183C104.183 9.53836 104.26 9.73128 104.416 9.89126C104.575 10.0465 104.768 10.1242 104.994 10.1242C105.22 10.1242 105.411 10.0465 105.566 9.89126C105.726 9.73128 105.806 9.53836 105.806 9.3125H107.133C107.133 9.70775 107.036 10.0677 106.843 10.3924C106.651 10.7123 106.392 10.9688 106.067 11.1617C105.742 11.3546 105.385 11.4511 104.994 11.4511Z" fill="black"/>
<path d="M114.428 22.4758V21.0289C113.905 21.1183 113.407 21.0971 112.931 20.9654C112.461 20.8336 112.042 20.6007 111.675 20.2666C111.308 19.9278 111.019 19.4949 110.807 18.9679C110.595 18.4362 110.489 17.8151 110.489 17.1046C110.489 16.3941 110.595 15.7706 110.807 15.2342C111.019 14.6978 111.308 14.2578 111.675 13.9144C112.042 13.5709 112.461 13.3309 112.931 13.1944C113.407 13.058 113.905 13.0344 114.428 13.1239V12.3122H116.115V13.1239C116.637 13.0344 117.136 13.058 117.611 13.1944C118.086 13.3309 118.507 13.5709 118.874 13.9144C119.241 14.2578 119.531 14.6978 119.742 15.2342C119.959 15.7706 120.067 16.3941 120.067 17.1046C120.067 17.8151 119.959 18.4362 119.742 18.9679C119.531 19.4949 119.241 19.9278 118.874 20.2666C118.507 20.6007 118.086 20.8336 117.611 20.9654C117.136 21.0971 116.637 21.1183 116.115 21.0289V22.4758H114.428ZM114.428 19.469V14.6554C114.018 14.5896 113.67 14.6178 113.383 14.7401C113.101 14.8578 112.873 15.0389 112.698 15.2836C112.529 15.5236 112.407 15.8036 112.331 16.1235C112.256 16.4435 112.219 16.7705 112.219 17.1046C112.219 17.4387 112.256 17.761 112.331 18.0715C112.407 18.3821 112.529 18.655 112.698 18.8903C112.873 19.1208 113.101 19.2902 113.383 19.3985C113.67 19.5067 114.018 19.5302 114.428 19.469ZM116.115 19.469C116.529 19.5302 116.877 19.5067 117.159 19.3985C117.441 19.2855 117.67 19.1138 117.844 18.8832C118.018 18.6527 118.143 18.3868 118.218 18.0857C118.298 17.7845 118.338 17.474 118.338 17.154C118.338 16.834 118.298 16.5141 118.218 16.1941C118.143 15.8694 118.018 15.5824 117.844 15.333C117.67 15.0789 117.441 14.886 117.159 14.7543C116.877 14.6225 116.529 14.5896 116.115 14.6554V19.469Z" fill="black"/>
<path d="M129.635 22.4758H127.913V15.3118L123.198 22.4758H121.476V12.3122H123.198V19.4761L127.913 12.3122H129.635V22.4758Z" fill="black"/>
<path d="M131.608 22.4758V12.3122H133.309V16.5894H138.122V12.3122H139.816V22.4758H138.122V18.1845H133.309V22.4758H131.608Z" fill="black"/>
</svg>
