<svg width="24" height="24" viewBox="0 0 24 24" fill="none" xmlns="http://www.w3.org/2000/svg">
<path fill-rule="evenodd" clip-rule="evenodd" d="M12.1689 8.80297C13.8655 8.88903 15.2156 10.2919 15.2159 12.0101L15.2116 12.1752C15.1284 13.8174 13.8111 15.1345 12.1689 15.2178L12.0038 15.2221C10.2855 15.2221 8.88202 13.8722 8.79609 12.1752L8.7918 12.0101C8.79203 10.2365 10.2303 8.79868 12.0038 8.79868L12.1689 8.80297ZM12.0038 9.93031C10.8548 9.93031 9.92363 10.8614 9.92343 12.0101L9.92589 12.1169C9.98148 13.2163 10.8906 14.0905 12.0038 14.0905L12.1106 14.088C13.2099 14.0323 14.0842 13.1232 14.0842 12.0101L14.0818 11.9033C14.0278 10.8397 13.1745 9.98669 12.1106 9.93277L12.0038 9.93031Z" fill="#737378"/>
<path fill-rule="evenodd" clip-rule="evenodd" d="M12.2272 6.876C14.4809 6.96775 16.4261 8.45271 17.6773 9.68791L17.9492 9.95793C18.2125 10.2224 18.4473 10.4738 18.6218 10.7349C18.8768 11.1164 19.0078 11.5184 19.0078 12.0254L19.0017 12.2108C18.9731 12.6326 18.845 12.9822 18.6218 13.316C18.4473 13.577 18.2125 13.8285 17.9492 14.0929L17.6773 14.3623C16.4261 15.5976 14.481 17.0825 12.2272 17.1743L12.0081 17.1792C9.80794 17.1792 7.88532 15.8242 6.58928 14.6041L6.3389 14.3623C5.96664 13.9949 5.62712 13.6639 5.39443 13.316C5.17117 12.9822 5.0431 12.6327 5.01456 12.2108L5.00781 12.0254C5.00784 11.5184 5.1394 11.1164 5.39443 10.7349C5.62713 10.3868 5.9666 10.0554 6.3389 9.68791L6.58928 9.44612C7.88532 8.22614 9.80808 6.87109 12.0081 6.87109L12.2272 6.876ZM12.0081 8.00273C10.2489 8.00273 8.60007 9.10931 7.37296 10.2623L7.133 10.4931C6.73146 10.8895 6.48978 11.1322 6.33521 11.3633C6.20306 11.561 6.14008 11.7447 6.14006 12.0254L6.14252 12.1261C6.15635 12.3521 6.21954 12.514 6.33521 12.687C6.48978 12.9181 6.73124 13.1606 7.133 13.5572L7.37296 13.7879C8.60007 14.941 10.2488 16.0475 12.0081 16.0475L12.1836 16.0438C13.9935 15.9687 15.6748 14.7502 16.8832 13.5572L17.1557 13.2866C17.4004 13.0404 17.5651 12.8603 17.681 12.687C17.8131 12.4895 17.8761 12.306 17.8762 12.0254L17.8737 11.9242C17.8598 11.6985 17.7966 11.5362 17.681 11.3633C17.5651 11.1899 17.4004 11.01 17.1557 10.7637L16.8832 10.4931C15.6748 9.30011 13.9935 8.08154 12.1836 8.00641L12.0081 8.00273Z" fill="#737378"/>
</svg>
