<svg width="24" height="24" viewBox="0 0 24 24" fill="none" xmlns="http://www.w3.org/2000/svg">
<path d="M17.2728 8.84831C17.7044 9.21996 18.0871 9.59503 18.4121 9.9388L18.6868 10.2337C18.9429 10.52 19.1425 10.7991 19.2806 11.2409L19.306 11.3314C19.3598 11.5473 19.3789 11.7973 19.3789 12.0163C19.3789 12.2354 19.3598 12.4858 19.306 12.7018L19.2806 12.7923C19.1425 13.2341 18.9428 13.5133 18.6868 13.7995L18.4121 14.0944C17.108 15.4738 14.879 17.3617 12.2598 17.4785L12.0046 17.4844C11.034 17.4843 10.1138 17.2354 9.27018 16.8509L10.1882 15.9329C10.7719 16.1523 11.3814 16.2838 12.0046 16.2839L12.2096 16.2793C14.3228 16.183 16.263 14.6214 17.5404 13.2702L17.7891 13.002C17.9912 12.7762 18.0667 12.6543 18.1354 12.4342L18.151 12.3672C18.1664 12.2854 18.179 12.1619 18.179 12.0163C18.179 11.8707 18.1664 11.7476 18.151 11.666L18.1354 11.599C18.0666 11.379 17.9912 11.2571 17.7891 11.0312L17.5404 10.763C17.2093 10.4128 16.8335 10.0485 16.4219 9.69922L17.2728 8.84831Z" fill="#3C3C43" fill-opacity="0.72"/>
<path d="M16.4238 6.73177C16.6581 6.49756 17.0385 6.49756 17.2728 6.73177C17.5071 6.96606 17.507 7.34641 17.2728 7.58073L7.57422 17.2799L7.52799 17.321C7.29242 17.513 6.94489 17.4993 6.72526 17.2799C6.50564 17.0603 6.49152 16.7122 6.68359 16.4766L6.72526 16.431L16.4238 6.73177Z" fill="#3C3C43" fill-opacity="0.72"/>
<path d="M15.2233 10.8978C15.3417 11.2438 15.4075 11.6145 15.4076 12.0007L15.403 12.1758C15.3148 13.9179 13.9178 15.3151 12.1758 15.4036L12 15.4082C11.6137 15.4082 11.2426 15.3431 10.8965 15.2246L11.916 14.2051C11.9438 14.2061 11.9719 14.2077 12 14.2077L12.1139 14.2051C13.28 14.1458 14.2077 13.1814 14.2077 12.0007L14.2051 11.916L15.2233 10.8978Z" fill="#3C3C43" fill-opacity="0.72"/>
<path d="M12.2598 6.55469C13.1251 6.59328 13.9475 6.82624 14.7083 7.16927L13.7897 8.08789C13.2155 7.87565 12.6165 7.74937 12.0046 7.74935L11.8001 7.75391C9.8233 7.84394 7.99766 9.21646 6.72461 10.4993L6.4694 10.763C6.11969 11.1329 5.99744 11.271 5.91081 11.4961L5.875 11.599C5.85333 11.6683 5.83142 11.8223 5.83138 12.0163C5.83138 12.2104 5.85332 12.3647 5.875 12.4342L5.91081 12.5371C5.99743 12.7624 6.11955 12.9001 6.4694 13.2702L6.72461 13.5339C6.98275 13.794 7.26423 14.0571 7.56445 14.3132L6.71289 15.1647C6.40224 14.896 6.11732 14.6258 5.86133 14.3672L5.59766 14.0944C5.25532 13.7323 4.98868 13.4576 4.80404 13L4.72982 12.7923C4.6566 12.558 4.63086 12.2667 4.63086 12.0163C4.63089 11.7659 4.65661 11.4751 4.72982 11.2409L4.80404 11.0332C4.98866 10.5758 5.25529 10.3009 5.59766 9.9388L5.86133 9.66602C7.23673 8.27682 9.44612 6.54904 12.0046 6.54883L12.2598 6.55469Z" fill="#3C3C43" fill-opacity="0.72"/>
<path d="M12.1758 8.59831C12.4981 8.61468 12.8083 8.67684 13.1009 8.77669L12.082 9.79557L12 9.79427C10.7814 9.79453 9.79385 10.782 9.79362 12.0007L9.79492 12.0827L8.77604 13.1016C8.67619 12.8088 8.61463 12.4982 8.59831 12.1758L8.59375 12.0007C8.594 10.1193 10.1187 8.59401 12 8.59375L12.1758 8.59831Z" fill="#3C3C43" fill-opacity="0.72"/>
</svg>
